<?xml version="1.0" ?><svg xmlns="http://www.w3.org/2000/svg" xmlns:xlink="http://www.w3.org/1999/xlink" version="1.1" viewBox="0 0 512 512" style="enable-background:new 0 0 512 512;" xml:space="preserve"><g id="_x31_3_Jetpack_x2C__Futuristic_x2C__Future_x2C__Transportation_x2C__Electronics"><g><g><g><polygon style="fill:#CDDCF9;" points="501.037,261 501.037,381.019 385.023,381.019 391.019,351.017 391.019,140.982     "/><path style="fill:#FFFFFF;" d="M391.019,351.017H281.002v-50.013h0.12c16.505,0,29.883-13.377,29.883-29.883v-50.253      c0-16.495-13.377-29.883-29.883-29.883h-0.12c0-9.686,0-88.512,0-100.007h110.018      C391.019,115.099,391.019,320.684,391.019,351.017z"/><path style="fill:#FFFFFF;" d="M391.019,65.967v25.012H281.002V65.967c0-30.381,24.623-55.004,55.014-55.004      C366.38,10.963,391.019,35.583,391.019,65.967z"/><path style="fill:#FFFFFF;" d="M391.019,351.017c-0.659,3.295,2.965-14.825-10.001,50.004c-9.331,0-80.519,0-90.016,0      l-10.001-50.004H391.019z"/><path style="fill:#FFFFFF;" d="M354.085,407.176c15.902,31.777,8.486,70.244-18.069,93.861      c-26.556-23.607-33.967-62.086-18.079-93.861l3.078-6.156h30.002L354.085,407.176z"/><path style="fill:#CDDCF9;" d="M311.004,220.868v50.253c0,16.505-13.377,29.883-29.883,29.883c-21.985,0-28.34,0-50.243,0      c-16.505,0-29.883-13.377-29.883-29.883v-50.253c0-16.495,13.377-29.883,29.883-29.883c17.082,0,32.511,0,50.243,0      C297.626,190.985,311.004,204.373,311.004,220.868z"/><path style="fill:#FFFFFF;" d="M230.998,301.003v50.013H120.981c0-7.313,0-258.487,0-260.038h110.018c0,27.1,0,84.042,0,100.007      h-0.12c-16.505,0-29.883,13.387-29.883,29.883v50.253c0,16.505,13.377,29.883,29.883,29.883H230.998z"/><path style="fill:#FFFFFF;" d="M230.998,65.967v25.012H120.981V65.967c0-30.381,24.623-55.004,55.004-55.004      c15.2,0,28.946,6.166,38.897,16.117S230.998,50.776,230.998,65.967z"/><path style="fill:#FFFFFF;" d="M230.998,351.017l-10.001,50.004c-9.524,0-80.669,0-90.016,0      c-12.966-64.829-9.342-46.708-10.001-50.004H230.998z"/><path style="fill:#FFFFFF;" d="M194.063,407.176c15.876,31.78,8.489,70.245-18.079,93.861      c-26.546-23.607-33.967-62.086-18.069-93.861l3.068-6.156h30.002L194.063,407.176z"/><polygon style="fill:#CDDCF9;" points="120.981,351.017 126.977,381.019 10.963,381.019 10.963,261 120.981,140.982     "/></g></g><g><g><g id="XMLID_501_"><path style="fill:#487FE9;" d="M230.997,360.975H120.98c-5.501,0-9.961-4.46-9.961-9.961V65.971       c0-35.824,29.145-64.969,64.969-64.969c35.902,0,64.969,29.06,64.969,64.969V190.99c0,5.501-4.46,9.961-9.961,9.961       c-5.501,0-9.961-4.46-9.961-9.961V65.971c0-24.892-20.149-45.048-45.048-45.048c-24.839,0-45.048,20.209-45.048,45.048v275.082       h90.095v-40.047c0-5.501,4.46-9.961,9.961-9.961c5.501,0,9.961,4.46,9.961,9.961v50.008       C240.958,356.515,236.498,360.975,230.997,360.975z"/></g><g id="XMLID_498_"><path style="fill:#487FE9;" d="M220.995,410.983h-90.014c-4.748,0-8.836-3.351-9.767-8.008l-10.002-50.008       c-1.079-5.394,2.419-10.642,7.814-11.721c5.386-1.079,10.643,2.419,11.721,7.814l8.401,42h73.681l8.401-42       c1.078-5.395,6.327-8.895,11.721-7.814c5.395,1.079,8.893,6.327,7.814,11.721l-10.002,50.008       C229.831,407.632,225.743,410.983,220.995,410.983z"/></g><g id="XMLID_496_"><path style="fill:#487FE9;" d="M169.371,508.482c-29.859-26.541-38.236-70.033-20.369-105.765l3.075-6.149       c1.688-3.375,5.136-5.507,8.909-5.507h30.004c3.773,0,7.222,2.131,8.909,5.507l3.075,6.15       c17.866,35.731,9.491,79.223-20.368,105.764C178.833,511.836,173.145,511.838,169.371,508.482z M167.142,410.983l-0.322,0.643       c-12.42,24.839-8.475,54.516,9.168,75.212c17.644-20.696,21.587-50.373,9.167-75.211l-0.322-0.644H167.142z"/></g><g id="XMLID_493_"><path style="fill:#487FE9;" d="M230.997,100.935H120.98c-5.501,0-9.961-4.46-9.961-9.961s4.46-9.961,9.961-9.961h110.017       c5.501,0,9.961,4.46,9.961,9.961S236.498,100.935,230.997,100.935z"/></g><g id="XMLID_491_"><path style="fill:#487FE9;" d="M391.02,360.975H281.003c-5.501,0-9.961-4.46-9.961-9.961v-50.008       c0-5.501,4.46-9.961,9.961-9.961s9.961,4.46,9.961,9.961v40.047h90.095V65.971c0-24.894-20.147-45.048-45.048-45.048       c-24.839,0-45.048,20.209-45.048,45.048V190.99c0,5.501-4.46,9.961-9.961,9.961s-9.961-4.46-9.961-9.961V65.971       c0-35.824,29.145-64.969,64.969-64.969c35.904,0,64.969,29.058,64.969,64.969v285.043       C400.981,356.515,396.521,360.975,391.02,360.975z"/></g><g id="XMLID_490_"><path style="fill:#487FE9;" d="M381.019,410.983h-90.014c-4.748,0-8.836-3.351-9.767-8.008l-10.002-50.008       c-1.079-5.394,2.419-10.642,7.814-11.721c5.384-1.079,10.642,2.419,11.721,7.814l8.401,42h73.681l8.401-42       c1.078-5.395,6.325-8.895,11.721-7.814c5.395,1.079,8.893,6.327,7.814,11.721l-10.002,50.008       C389.855,407.632,385.766,410.983,381.019,410.983z"/></g><g id="XMLID_489_"><path style="fill:#487FE9;" d="M329.394,508.482c-29.859-26.541-38.235-70.033-20.368-105.765l3.075-6.149       c1.688-3.375,5.136-5.507,8.909-5.507h30.004c3.773,0,7.222,2.131,8.909,5.507l3.075,6.15       c17.866,35.731,9.49,79.223-20.369,105.764C338.857,511.836,333.169,511.838,329.394,508.482z M327.167,410.983l-0.322,0.643       c-12.42,24.839-8.476,54.516,9.167,75.212c17.644-20.696,21.588-50.373,9.168-75.211l-0.322-0.644H327.167z"/></g><g id="XMLID_488_"><path style="fill:#487FE9;" d="M391.02,100.935H281.003c-5.501,0-9.961-4.46-9.961-9.961s4.46-9.961,9.961-9.961H391.02       c5.501,0,9.961,4.46,9.961,9.961S396.521,100.935,391.02,100.935z"/></g><g id="XMLID_487_"><path style="fill:#487FE9;" d="M281.126,310.968h-50.252c-21.969,0-39.843-17.874-39.843-39.843v-50.252       c0-21.969,17.874-39.843,39.843-39.843h50.252c21.969,0,39.843,17.874,39.843,39.843v50.252       C320.969,293.093,303.095,310.968,281.126,310.968z M230.874,200.951c-10.985,0-19.922,8.937-19.922,19.922v50.252       c0,10.985,8.937,19.922,19.922,19.922h50.252c10.985,0,19.922-8.937,19.922-19.922v-50.252       c0-10.985-8.937-19.922-19.922-19.922H230.874z"/></g><g id="XMLID_486_"><path style="fill:#487FE9;" d="M281.003,150.943h-50.007c-5.501,0-9.961-4.46-9.961-9.961c0-5.501,4.46-9.961,9.961-9.961       h50.007c5.501,0,9.961,4.46,9.961,9.961C290.964,146.483,286.504,150.943,281.003,150.943z"/></g><g id="XMLID_485_"><path style="fill:#487FE9;" d="M501.037,390.979H385.019c-5.501,0-9.961-4.46-9.961-9.961s4.46-9.961,9.961-9.961h106.057       V264.875L383.678,147.713c-3.718-4.054-3.443-10.356,0.612-14.073c4.054-3.72,10.357-3.444,14.073,0.612L508.379,254.27       c1.685,1.837,2.619,4.238,2.619,6.73v120.018C510.998,386.519,506.538,390.979,501.037,390.979z"/></g><g id="XMLID_484_"><path style="fill:#487FE9;" d="M126.981,390.979H10.963c-5.501,0-9.961-4.46-9.961-9.961V261.001       c0-2.492,0.934-4.894,2.619-6.73l110.017-120.019c3.717-4.055,10.019-4.329,14.073-0.612c4.055,3.717,4.33,10.018,0.612,14.073       L20.924,264.875v106.182h106.057c5.501,0,9.961,4.46,9.961,9.961S132.481,390.979,126.981,390.979z"/></g></g></g></g></g><g id="Layer_1"/></svg>