<?xml version="1.0" ?><svg xmlns="http://www.w3.org/2000/svg" xmlns:xlink="http://www.w3.org/1999/xlink" version="1.1" viewBox="0 0 512 512" style="enable-background:new 0 0 512 512;" xml:space="preserve"><g id="_x31_1_Digital_Wallet_x2C__Bitcoin_Wallet_x2C__Crypto_x2C__Wallet_x2C__Bitcoin_x2C__Crypto_Wallet"><g><g><g><path style="fill:#CDDCF9;" d="M390.9,311.004c9.204,0,78.304,0,90.136,0v80.016c-11.277,0-80.479,0-90.136,0      c-16.632,0-29.883-13.521-29.883-29.883v-20.25C361.017,324.497,374.29,311.004,390.9,311.004z"/><path style="fill:#FFFFFF;" d="M390.9,311.004h70.135v-70.005c0-16.575-13.437-30.002-30.012-30.002      c-3.964,0-335.604,0-340.044,0c-32.891,0-59.596-26.446-60.004-59.237c0,2.711-0.01,319.176-0.01,319.276      c0,16.565,13.437,30.002,30.002,30.002h370.056c16.575,0,30.012-13.437,30.012-30.002V391.02H390.9      c-16.631,0-29.883-13.521-29.883-29.883v-20.25C361.017,324.497,374.29,311.004,390.9,311.004z"/><path style="fill:#FFFFFF;" d="M431.022,90.978v120.018h-155.25c45.225-21.341,69.15-71.597,57.225-120.018H431.022z"/><path style="fill:#CDDCF9;" d="M336.016,115.98c0,41.985-24.633,78.213-60.243,95.017h-89.548      c-45.384-21.416-69.111-71.795-57.235-120.018c11.206-45.93,52.623-80.016,102.009-80.016      C289.384,10.963,336.016,58.4,336.016,115.98z"/><circle style="fill:#CDDCF9;" cx="230.998" cy="271.001" r="20.001"/><path style="fill:#CDDCF9;" d="M251,431.022c0,11.057-8.955,20.011-20.001,20.011c-11.047,0-20.001-8.955-20.001-20.011      c0-11.047,8.955-20.001,20.001-20.001C242.045,411.021,251,419.972,251,431.022z"/><path style="fill:#FFFFFF;" d="M186.224,210.997H90.978c-32.891,0-59.596-26.446-60.004-59.237v-1.474      c0.36-32.76,27.02-59.307,60.004-59.307h38.011c-1.972,8.009-3.008,16.376-3.008,25.002      C125.981,157.965,150.614,194.193,186.224,210.997z"/><circle style="fill:#CDDCF9;" cx="166.432" cy="351.017" r="20.001"/></g></g><g><g><g id="XMLID_463_"><path style="fill:#487FE9;" d="M461.031,320.969c-5.501,0-9.961-4.46-9.961-9.961v-70.011c0-11.052-8.992-20.043-20.044-20.043       c-5.501,0-9.961-4.46-9.961-9.961c0-5.501,4.46-9.961,9.961-9.961c22.037,0,39.966,17.929,39.966,39.965v70.011       C470.992,316.509,466.532,320.969,461.031,320.969z"/></g><g id="XMLID_462_"><path style="fill:#487FE9;" d="M431.026,510.998H60.97c-22.036,0-39.965-17.929-39.965-39.965l0.006-320.743       c0-5.501,4.46-9.961,9.961-9.961l0,0c5.502,0,9.961,4.46,9.961,9.961l-0.006,320.743c0,11.052,8.991,20.043,20.043,20.043       h370.056c11.052,0,20.044-8.991,20.044-20.043V391.02c0-5.501,4.46-9.961,9.961-9.961s9.961,4.46,9.961,9.961v80.013       C470.992,493.069,453.064,510.998,431.026,510.998z"/></g><g id="XMLID_461_"><path style="fill:#487FE9;" d="M481.034,400.981h-90.135c-21.969,0-39.843-17.874-39.843-39.843v-20.247       c0-21.969,17.874-39.843,39.843-39.843h90.135c5.501,0,9.961,4.46,9.961,9.961v80.012       C490.995,396.521,486.535,400.981,481.034,400.981z M390.899,320.969c-10.985,0-19.922,8.937-19.922,19.922v20.247       c0,10.985,8.937,19.922,19.922,19.922h80.174v-60.09H390.899z"/></g><g id="XMLID_454_"><path style="fill:#487FE9;" d="M401.02,360.977c-5.516,0-9.961-4.51-9.961-9.961c0-5.44,4.423-9.963,9.961-9.966       c5.513-0.003,9.961,4.507,9.961,9.966C410.981,356.579,406.43,360.977,401.02,360.977z"/></g><g id="XMLID_449_"><path style="fill:#487FE9;" d="M362.736,340.972H231.037c-5.501,0-9.961-4.46-9.961-9.961v-40.006       c0-5.501,4.46-9.961,9.961-9.961c5.501,0,9.961,4.46,9.961,9.961v30.045h121.738c5.501,0,9.961,4.46,9.961,9.961       S368.237,340.972,362.736,340.972z"/></g><g id="XMLID_447_"><path style="fill:#487FE9;" d="M231.037,420.985c-5.501,0-9.961-4.46-9.961-9.961v-40.006c0-5.501,4.46-9.961,9.961-9.961       h131.699c5.501,0,9.961,4.46,9.961,9.961s-4.46,9.961-9.961,9.961H240.997v30.045       C240.997,416.525,236.537,420.985,231.037,420.985z"/></g><g id="XMLID_446_"><path style="fill:#487FE9;" d="M230.997,300.966c-16.522,0-29.964-13.441-29.964-29.963s13.442-29.964,29.964-29.964       s29.963,13.442,29.963,29.964S247.519,300.966,230.997,300.966z M230.997,260.96c-5.538,0-10.043,4.505-10.043,10.043       c0,5.537,4.505,10.042,10.043,10.042c5.537,0,10.042-4.505,10.042-10.042C241.038,265.465,236.534,260.96,230.997,260.96z"/></g><g id="XMLID_445_"><path style="fill:#487FE9;" d="M166.434,380.979c-16.522,0-29.964-13.442-29.964-29.964c0-16.522,13.442-29.964,29.964-29.964       s29.963,13.442,29.963,29.964C196.397,367.536,182.956,380.979,166.434,380.979z M166.434,340.972       c-5.538,0-10.043,4.505-10.043,10.043s4.505,10.043,10.043,10.043c5.537,0,10.042-4.505,10.042-10.043       S171.971,340.972,166.434,340.972z"/></g><g id="XMLID_444_"><path style="fill:#487FE9;" d="M230.997,460.99c-16.522,0-29.964-13.442-29.964-29.964s13.442-29.963,29.964-29.963       s29.963,13.441,29.963,29.963S247.519,460.99,230.997,460.99z M230.997,420.985c-5.538,0-10.043,4.505-10.043,10.042       c0,5.538,4.505,10.043,10.043,10.043c5.537,0,10.042-4.505,10.042-10.043C241.038,425.489,236.534,420.985,230.997,420.985z"/></g><g id="XMLID_441_"><path style="fill:#487FE9;" d="M146.431,360.975H30.966c-5.501,0-9.961-4.46-9.961-9.961c0-5.501,4.46-9.961,9.961-9.961       h115.464c5.501,0,9.961,4.46,9.961,9.961C156.391,356.515,151.931,360.975,146.431,360.975z"/></g><g id="XMLID_440_"><path style="fill:#487FE9;" d="M230.997,160.945h-20.003c-5.501,0-9.961-4.46-9.961-9.961c0-5.501,4.46-9.961,9.961-9.961       h20.003c5.537,0,10.042-4.505,10.042-10.042c0-5.538-4.505-10.043-10.042-10.043c-16.522,0-29.964-13.442-29.964-29.964       s13.442-29.963,29.964-29.963h20.002c5.501,0,9.961,4.46,9.961,9.961s-4.46,9.961-9.961,9.961h-20.002       c-5.538,0-10.043,4.505-10.043,10.042c0,5.538,4.505,10.043,10.043,10.043c16.522,0,29.963,13.442,29.963,29.964       S247.519,160.945,230.997,160.945z"/></g><g id="XMLID_432_"><path style="fill:#487FE9;" d="M230.997,80.933c-5.501,0-9.961-4.46-9.961-9.961V50.969c0-5.501,4.46-9.961,9.961-9.961       c5.501,0,9.961,4.46,9.961,9.961v20.003C240.958,76.473,236.498,80.933,230.997,80.933z"/></g><g id="XMLID_431_"><path style="fill:#487FE9;" d="M230.997,180.948c-5.501,0-9.961-4.46-9.961-9.961v-20.003c0-5.501,4.46-9.961,9.961-9.961       c5.501,0,9.961,4.46,9.961,9.961v20.003C240.958,176.488,236.498,180.948,230.997,180.948z"/></g><g id="XMLID_430_"><path style="fill:#487FE9;" d="M431.026,220.954H90.975c-38.581,0-69.969-31.388-69.969-69.97       c0-38.689,31.31-69.97,69.969-69.97h38.016c5.501,0,9.961,4.46,9.961,9.961s-4.46,9.961-9.961,9.961H90.975       c-27.674,0-50.047,22.394-50.047,50.048c0,27.597,22.451,50.048,50.047,50.048h330.091V100.935h-88.063       c-5.501,0-9.961-4.46-9.961-9.961s4.46-9.961,9.961-9.961h98.024c5.501,0,9.961,4.46,9.961,9.961v120.019       C440.987,216.494,436.527,220.954,431.026,220.954z"/></g><g id="XMLID_426_"><path style="fill:#487FE9;" d="M275.773,220.954h-89.553c-1.47,0-2.922-0.325-4.251-0.952       c-39.401-18.594-65.949-58.506-65.949-104.023c0-63.251,50.897-114.977,114.977-114.977       c64.13,0,114.976,51.783,114.976,114.977c0,45.519-26.549,85.429-65.949,104.023       C278.694,220.629,277.243,220.954,275.773,220.954z M188.511,201.032h84.97c32.009-16.021,52.57-49.165,52.57-85.053       c0-52.292-42.075-95.055-95.054-95.055c-52.941,0-95.055,42.714-95.055,95.055       C135.941,151.867,156.502,185.011,188.511,201.032z"/></g></g></g></g></g><g id="Layer_1"/></svg>