<?xml version="1.0" ?><svg xmlns="http://www.w3.org/2000/svg" xmlns:xlink="http://www.w3.org/1999/xlink" version="1.1" viewBox="0 0 512 512" style="enable-background:new 0 0 512 512;" xml:space="preserve"><g id="_x30_8_Laptop_x2C__Computer_x2C__No_Laptop_x2C__Technology_x2C__Electronic"><g><g><g><path style="fill:#FFFFFF;" d="M451.034,40.965H60.966c-16.565,0-30.002,13.437-30.002,30.002V401.02h160.021v20.001h130.029      V401.02h160.021V70.967C481.036,54.402,467.599,40.965,451.034,40.965z"/><rect x="70.967" y="80.978" style="fill:#CDDCF9;" width="370.066" height="280.04"/><path style="fill:#FFFFFF;" d="M501.037,401.02v40.013c0,16.565-13.437,30.002-30.002,30.002H40.965      c-16.565,0-30.002-13.437-30.002-30.002V401.02c15.348,0,171.344,0,180.023,0v20.001h130.029V401.02      C329.747,401.02,485.704,401.02,501.037,401.02z"/><rect x="316.004" y="120.981" style="fill:#FFFFFF;" width="40.013" height="110.018"/><rect x="235.999" y="140.982" style="fill:#FFFFFF;" width="40.003" height="90.016"/><rect x="155.983" y="170.984" style="fill:#FFFFFF;" width="40.013" height="60.014"/></g></g><g><g><g id="XMLID_239_"><path style="fill:#487FE9;" d="M471.033,480.994H40.967c-22.036,0-39.965-17.929-39.965-39.966v-40.006       c0-5.501,4.46-9.961,9.961-9.961H190.99c5.501,0,9.961,4.46,9.961,9.961v10.043h110.099v-10.043       c0-5.501,4.46-9.961,9.961-9.961h180.027c5.501,0,9.961,4.46,9.961,9.961v40.006       C510.998,463.065,493.069,480.994,471.033,480.994z M20.924,410.983v30.045c0,11.052,8.991,20.044,20.043,20.044h430.066       c11.052,0,20.043-8.992,20.043-20.044v-30.045H330.971v10.043c0,5.501-4.46,9.961-9.961,9.961H190.99       c-5.501,0-9.961-4.46-9.961-9.961v-10.043H20.924z"/></g><g id="XMLID_238_"><path style="fill:#487FE9;" d="M481.034,410.983c-5.501,0-9.961-4.46-9.961-9.961V70.972c0-11.052-8.991-20.044-20.043-20.044       H60.97c-11.052,0-20.043,8.992-20.043,20.044v330.05c0,5.501-4.46,9.961-9.961,9.961s-9.961-4.46-9.961-9.961V70.972       c0-22.037,17.929-39.966,39.965-39.966H451.03c22.036,0,39.965,17.929,39.965,39.966v330.05       C490.995,406.523,486.535,410.983,481.034,410.983z"/></g><g id="XMLID_237_"><path style="fill:#487FE9;" d="M441.028,370.977H70.972c-5.501,0-9.961-4.46-9.961-9.961V80.974       c0-5.501,4.46-9.961,9.961-9.961h370.056c5.501,0,9.961,4.46,9.961,9.961v280.042       C450.989,366.517,446.529,370.977,441.028,370.977z M80.933,351.055h350.134V90.935H80.933V351.055z"/></g><g id="XMLID_236_"><path style="fill:#487FE9;" d="M195.991,240.958h-40.006c-5.501,0-9.961-4.46-9.961-9.961v-60.009       c0-5.501,4.46-9.961,9.961-9.961h40.006c5.501,0,9.961,4.46,9.961,9.961v60.009       C205.952,236.498,201.492,240.958,195.991,240.958z M165.946,221.036h20.084v-40.088h-20.084V221.036z"/></g><g id="XMLID_234_"><path style="fill:#487FE9;" d="M276.003,240.958h-40.007c-5.501,0-9.961-4.46-9.961-9.961v-90.014       c0-5.501,4.46-9.961,9.961-9.961h40.007c5.501,0,9.961,4.46,9.961,9.961v90.014       C285.964,236.498,281.504,240.958,276.003,240.958z M245.957,221.036h20.085v-70.093h-20.085V221.036z"/></g><g id="XMLID_233_"><path style="fill:#487FE9;" d="M356.015,240.958h-40.006c-5.501,0-9.961-4.46-9.961-9.961V120.98       c0-5.501,4.46-9.961,9.961-9.961h40.006c5.501,0,9.961,4.46,9.961,9.961v110.017       C365.976,236.498,361.516,240.958,356.015,240.958z M325.97,221.036h20.084v-90.095H325.97V221.036z"/></g><g id="XMLID_232_"><path style="fill:#487FE9;" d="M245.997,330.971c-2.629,0-5.166-1.042-7.043-2.917l-22.961-22.962l-12.96,12.96       c-1.869,1.868-4.402,2.917-7.044,2.917h-40.006c-5.501,0-9.961-4.46-9.961-9.961c0-5.501,4.46-9.961,9.961-9.961h35.88       l17.086-17.086c1.869-1.868,4.402-2.917,7.044-2.917c2.642,0,5.176,1.05,7.044,2.917l21.608,21.61l28.197-40.281       c1.916-2.738,5.061-4.311,8.42-4.246c3.34,0.088,6.415,1.844,8.187,4.679l22.078,35.324h44.487c5.501,0,9.961,4.46,9.961,9.961       c0,5.501-4.46,9.961-9.961,9.961h-50.008c-3.435,0-6.626-1.769-8.446-4.682l-17.028-27.244l-26.375,37.678       c-1.689,2.412-4.358,3.954-7.292,4.211C246.577,330.958,246.286,330.971,245.997,330.971z"/></g></g></g></g></g><g id="Layer_1"/></svg>