<?xml version="1.0" ?><svg xmlns="http://www.w3.org/2000/svg" xmlns:xlink="http://www.w3.org/1999/xlink" version="1.1" viewBox="0 0 512 512" style="enable-background:new 0 0 512 512;" xml:space="preserve"><g id="_x32_7_Gps_x2C__Smartphone_x2C__Geolocalization_x2C__Navigation_x2C__Navigator"><g><g><g><path style="fill:#FFFFFF;" d="M80.978,90.978c0,10.196,0,319.941,0,330.043h290.04c0-16.666,0-314.34,0-330.043H80.978z"/><path style="fill:#CDDCF9;" d="M371.019,138.99c33.14,0,60.004,26.864,60.004,60.014c0,25.36-35.132,82.187-51.637,107.468      c-3.948,6.041-12.785,6.044-16.734,0c-16.505-25.281-51.647-82.107-51.647-107.468      C311.004,165.854,337.879,138.99,371.019,138.99z M391.02,199.004c0-11.047-8.955-20.001-20.001-20.001      s-20.001,8.955-20.001,20.001c0,11.047,8.955,20.001,20.001,20.001S391.02,210.051,391.02,199.004z"/><path style="fill:#CDDCF9;" d="M371.019,421.022c0,23.448,0,43.17,0,50.013c0,16.575-13.437,30.002-30.002,30.002H110.98      c-16.575,0-30.002-13.427-30.002-30.002v-50.013H371.019z"/><path style="fill:#CDDCF9;" d="M371.019,40.965c0,6.156,0,28.219,0,50.013H80.978V40.965c0-16.575,13.427-30.002,30.002-30.002      h60.004v30.042c0,5.508,4.462,9.961,9.961,9.961h90.096c5.498,0,9.961-4.453,9.961-9.961V10.963h60.014      C357.581,10.963,371.019,24.39,371.019,40.965z"/><path style="fill:#FFFFFF;" d="M281.002,10.963v30.042c0,5.508-4.462,9.961-9.961,9.961h-90.096      c-5.498,0-9.961-4.453-9.961-9.961V10.963H281.002z"/></g></g><g><g><g id="XMLID_945_"><path style="fill:#487FE9;" d="M341.013,510.998H110.979c-22.036,0-39.965-17.929-39.965-39.965V40.967       c0-22.036,17.929-39.965,39.965-39.965h230.035c22.037,0,39.966,17.929,39.966,39.965v98.025c0,5.501-4.46,9.961-9.961,9.961       s-9.961-4.46-9.961-9.961V40.967c0-11.052-8.992-20.043-20.044-20.043H110.979c-11.052,0-20.043,8.991-20.043,20.043v430.066       c0,11.052,8.991,20.043,20.043,20.043h230.035c11.052,0,20.044-8.991,20.044-20.043V311.008c0-5.501,4.46-9.961,9.961-9.961       s9.961,4.46,9.961,9.961v160.025C380.979,493.069,363.051,510.998,341.013,510.998z"/></g><g id="XMLID_944_"><path style="fill:#487FE9;" d="M271.043,60.93h-90.094c-10.985,0-19.922-8.937-19.922-19.922V10.963       c0-5.501,4.46-9.961,9.961-9.961c5.501,0,9.961,4.46,9.961,9.961v30.045h90.094V10.963c0-5.501,4.46-9.961,9.961-9.961       c5.501,0,9.961,4.46,9.961,9.961v30.045C290.965,51.993,282.028,60.93,271.043,60.93z"/></g><g id="XMLID_943_"><path style="fill:#487FE9;" d="M371.018,430.986H80.974c-5.501,0-9.961-4.46-9.961-9.961V90.975       c0-5.501,4.46-9.961,9.961-9.961h290.044c5.501,0,9.961,4.46,9.961,9.961v48.017c0,5.501-4.46,9.961-9.961,9.961       s-9.961-4.46-9.961-9.961v-38.057H90.935v310.129h270.122V311.008c0-5.501,4.46-9.961,9.961-9.961s9.961,4.46,9.961,9.961       v110.017C380.979,426.526,376.519,430.986,371.018,430.986z"/></g><g id="XMLID_942_"><path style="fill:#487FE9;" d="M240.998,470.992h-30.004c-5.501,0-9.961-4.46-9.961-9.961s4.46-9.961,9.961-9.961h30.004       c5.501,0,9.961,4.46,9.961,9.961S246.499,470.992,240.998,470.992z"/></g><g id="XMLID_941_"><path style="fill:#487FE9;" d="M363.975,388.062L73.931,98.018c-3.89-3.89-3.89-10.197,0-14.087       c3.891-3.889,10.196-3.889,14.087,0l290.044,290.044c3.89,3.89,3.89,10.197,0,14.087       C374.17,391.952,367.866,391.951,363.975,388.062z"/></g><g id="XMLID_940_"><path style="fill:#487FE9;" d="M72.571,276.351c-2.953-4.642-1.586-10.798,3.055-13.752l110.016-70.011       c4.644-2.955,10.797-1.585,13.752,3.055c2.953,4.642,1.586,10.798-3.055,13.752L86.323,279.406       C81.712,282.34,75.544,281.022,72.571,276.351z"/></g><g id="XMLID_939_"><path style="fill:#487FE9;" d="M354.306,311.917c-24.296-37.234-53.258-87.047-53.258-112.916       c0-38.582,31.388-69.97,69.97-69.97c38.581,0,69.969,31.388,69.969,69.97c0,25.869-28.961,75.682-53.257,112.915       C379.853,323.984,362.174,323.972,354.306,311.917z M371.018,148.953c-27.597,0-50.048,22.452-50.048,50.048       c0,15.651,19.166,54.747,50.019,102.028c30.911-47.281,50.077-86.376,50.077-102.028       C421.066,171.405,398.615,148.953,371.018,148.953z"/></g><g id="XMLID_938_"><path style="fill:#487FE9;" d="M371.018,228.966c-16.522,0-29.964-13.442-29.964-29.964s13.442-29.964,29.964-29.964       s29.963,13.442,29.963,29.964S387.54,228.966,371.018,228.966z M371.018,188.959c-5.538,0-10.043,4.505-10.043,10.043       s4.505,10.043,10.043,10.043c5.537,0,10.042-4.505,10.042-10.043S376.555,188.959,371.018,188.959z"/></g></g></g></g></g><g id="Layer_1"/></svg>