<?xml version="1.0" ?><svg xmlns="http://www.w3.org/2000/svg" xmlns:xlink="http://www.w3.org/1999/xlink" version="1.1" viewBox="0 0 512 512" style="enable-background:new 0 0 512 512;" xml:space="preserve"><g id="_x33_3_Robot_Hand_x2C__Robot_x2C__Arm_x2C__Robotics_x2C__Robotic_Hand"><g><g><g><path style="fill:#FFFFFF;" d="M432.233,236.148c11.724,11.704,11.724,30.719,0,42.423l-43.23,43.23      c1.305-3.347,2.012-6.993,2.012-10.798c0-16.565-13.437-30.002-30.002-30.002h-16.067l44.864-44.854      C401.514,224.424,420.519,224.424,432.233,236.148z"/><path style="fill:#FFFFFF;" d="M391.015,311.004c0,16.513-13.381,30.012-30.002,30.012h-50.013v-60.014h33.947h16.067      C377.578,281.002,391.015,294.439,391.015,311.004z"/><path style="fill:#CDDCF9;" d="M250.995,220.997h-60.014c-6.673,0-113.35,0-120.018,0v140.14      c0,16.505,13.387,29.883,29.883,29.883c82.964,0,97.226,0,180.272,0c16.505,0,29.883-13.377,29.883-29.883v-20.121v-60.014      v-60.004H250.995z"/><rect x="250.995" y="130.981" style="fill:#FFFFFF;" width="60.004" height="90.016"/><path style="fill:#FFFFFF;" d="M310.999,70.967v60.014h-60.004V115.98V70.967c0-16.565,13.437-30.002,30.002-30.002      C297.572,40.965,310.999,54.392,310.999,70.967z"/><path style="fill:#FFFFFF;" d="M280.997,391.019v80.016c0,16.565-13.427,30.002-30.002,30.002h-40.003v-50.004      c0-11.047-8.955-20.011-20.011-20.011c-11.047,0-20.001,8.965-20.001,20.011v50.004h-40.003      c-16.575,0-30.002-13.437-30.002-30.002v-80.016C128.414,391.019,253.449,391.019,280.997,391.019z"/><circle style="fill:#FFFFFF;" cx="250.995" cy="281.002" r="20.001"/><polygon style="fill:#FFFFFF;" points="250.995,130.981 250.995,220.998 190.981,220.998 190.981,130.981 190.981,115.98       250.995,115.98     "/><path style="fill:#FFFFFF;" d="M250.995,115.98h-60.014c0-12.273,0-56.539,0-75.015c0-16.565,13.437-30.002,30.012-30.002      c16.566,0,30.002,13.427,30.002,30.002C250.995,59.441,250.995,103.648,250.995,115.98z"/><path style="fill:#FFFFFF;" d="M210.992,451.034v50.004h-40.013v-50.004c0-11.047,8.955-20.011,20.001-20.011      C202.037,431.022,210.992,439.987,210.992,451.034z"/><path style="fill:#FFFFFF;" d="M190.981,130.981v90.016h-60.004c0-10.497,0-75.761,0-90.016H190.981z"/><path style="fill:#FFFFFF;" d="M190.981,115.98v15.001h-60.004V70.967c0-16.565,13.437-30.002,30.002-30.002      c16.574,0,30.002,13.427,30.002,30.002V115.98z"/><circle style="fill:#FFFFFF;" cx="130.977" cy="281.002" r="20.001"/><rect x="70.962" y="160.983" style="fill:#FFFFFF;" width="60.014" height="60.014"/><path style="fill:#FFFFFF;" d="M130.977,130.981v30.002H70.962v-30.002c0-16.575,13.437-30.002,30.012-30.002      C117.549,100.979,130.977,114.406,130.977,130.981z"/></g></g><g><g><g id="XMLID_1053_"><path style="fill:#487FE9;" d="M250.994,510.998h-40.006c-5.501,0-9.961-4.46-9.961-9.961s4.46-9.961,9.961-9.961h40.006       c11.052,0,20.043-8.991,20.043-20.043v-70.052h-80.053c-5.501,0-9.961-4.46-9.961-9.961s4.46-9.961,9.961-9.961h90.013       c5.501,0,9.961,4.46,9.961,9.961v80.013C290.96,493.069,273.031,510.998,250.994,510.998z"/></g><g id="XMLID_1052_"><path style="fill:#487FE9;" d="M170.983,510.998h-40.006c-22.037,0-39.966-17.929-39.966-39.965V391.02       c0-5.501,4.46-9.961,9.961-9.961s9.961,4.46,9.961,9.961v80.013c0,11.052,8.992,20.043,20.044,20.043h40.006       c5.501,0,9.961,4.46,9.961,9.961S176.484,510.998,170.983,510.998z"/></g><g id="XMLID_1051_"><path style="fill:#487FE9;" d="M210.989,510.998h-40.006c-5.501,0-9.961-4.46-9.961-9.961V451.03       c0-16.522,13.441-29.964,29.963-29.964s29.964,13.442,29.964,29.964v50.008C220.949,506.538,216.489,510.998,210.989,510.998z        M180.944,491.076h20.084V451.03c0-5.538-4.505-10.043-10.043-10.043c-5.537,0-10.042,4.505-10.042,10.043V491.076z"/></g><g id="XMLID_1050_"><path style="fill:#487FE9;" d="M281.121,400.981H100.85c-21.969,0-39.843-17.874-39.843-39.843V220.995       c0-5.501,4.46-9.961,9.961-9.961h240.036c5.501,0,9.961,4.46,9.961,9.961v140.143       C320.965,383.107,303.091,400.981,281.121,400.981z M80.928,230.956v130.182c0,10.985,8.937,19.922,19.922,19.922h180.271       c10.985,0,19.922-8.937,19.922-19.922V230.956H80.928z"/></g><g id="XMLID_1048_"><path style="fill:#487FE9;" d="M130.977,230.956H70.967c-5.501,0-9.961-4.46-9.961-9.961v-90.014       c0-22.037,17.929-39.966,39.965-39.966c22.037,0,39.966,17.929,39.966,39.966v90.014       C140.938,226.496,136.478,230.956,130.977,230.956z M80.928,211.034h40.088v-80.053c0-11.052-8.992-20.044-20.044-20.044       s-20.043,8.992-20.043,20.044V211.034z"/></g><g id="XMLID_1047_"><path style="fill:#487FE9;" d="M190.985,230.956h-60.008c-5.501,0-9.961-4.46-9.961-9.961V70.972       c0-22.037,17.929-39.966,39.965-39.966s39.965,17.929,39.965,39.966v150.023C200.946,226.496,196.486,230.956,190.985,230.956z        M140.938,211.034h40.087V70.972c0-11.052-8.991-20.044-20.043-20.044s-20.043,8.992-20.043,20.044V211.034z"/></g><g id="XMLID_1046_"><path style="fill:#487FE9;" d="M250.994,230.956h-60.009c-5.501,0-9.961-4.46-9.961-9.961V40.967       c0-22.036,17.929-39.965,39.966-39.965c22.036,0,39.965,17.929,39.965,39.965v180.028       C260.955,226.496,256.495,230.956,250.994,230.956z M200.946,211.034h40.088V40.967c0-11.052-8.991-20.043-20.043-20.043       s-20.044,8.991-20.044,20.043V211.034z"/></g><g id="XMLID_1045_"><path style="fill:#487FE9;" d="M311.004,230.956h-60.009c-5.501,0-9.961-4.46-9.961-9.961V70.972       c0-22.037,17.929-39.966,39.965-39.966c22.037,0,39.966,17.929,39.966,39.966v150.023       C320.965,226.496,316.505,230.956,311.004,230.956z M260.955,211.034h40.088V70.972c0-11.052-8.992-20.044-20.044-20.044       s-20.043,8.992-20.043,20.044V211.034z"/></g><g id="XMLID_1044_"><path style="fill:#487FE9;" d="M361.011,350.974h-50.008c-5.501,0-9.961-4.46-9.961-9.961v-60.009       c0-5.501,4.46-9.961,9.961-9.961h50.008c22.036,0,39.965,17.929,39.965,39.966       C400.976,333.045,383.048,350.974,361.011,350.974z M320.965,331.052h40.047c11.052,0,20.043-8.991,20.043-20.043       s-8.991-20.044-20.043-20.044h-40.047V331.052z"/></g><g id="XMLID_1043_"><path style="fill:#487FE9;" d="M381.962,328.844c-3.89-3.89-3.89-10.197,0-14.087l43.227-43.227       c7.842-7.828,7.833-20.519,0.007-28.333c-7.866-7.872-20.542-7.817-28.344-0.01l-44.86,44.86       c-3.891,3.891-10.196,3.889-14.087,0c-3.89-3.89-3.89-10.197,0-14.087l44.857-44.856c15.608-15.622,40.903-15.627,56.517,0.004       c15.586,15.558,15.655,40.878-0.009,56.515l-43.221,43.221C392.157,332.734,385.853,332.733,381.962,328.844z"/></g><g id="XMLID_1042_"><path style="fill:#487FE9;" d="M130.977,310.968c-16.522,0-29.964-13.442-29.964-29.964s13.442-29.963,29.964-29.963       s29.963,13.441,29.963,29.963S147.499,310.968,130.977,310.968z M130.977,270.962c-5.538,0-10.043,4.505-10.043,10.042       c0,5.538,4.505,10.043,10.043,10.043c5.537,0,10.042-4.505,10.042-10.043C141.018,275.466,136.514,270.962,130.977,270.962z"/></g><g id="XMLID_1041_"><path style="fill:#487FE9;" d="M160.981,400.981c-5.501,0-9.961-4.46-9.961-9.961v-40.047h-20.043       c-5.501,0-9.961-4.46-9.961-9.961v-40.006c0-5.501,4.46-9.961,9.961-9.961c5.501,0,9.961,4.46,9.961,9.961v30.045h20.043       c5.501,0,9.961,4.46,9.961,9.961v50.008C170.942,396.521,166.482,400.981,160.981,400.981z"/></g><g id="XMLID_1040_"><path style="fill:#487FE9;" d="M250.994,310.968c-16.522,0-29.963-13.442-29.963-29.964s13.441-29.963,29.963-29.963       s29.964,13.441,29.964,29.963S267.516,310.968,250.994,310.968z M250.994,270.962c-5.537,0-10.042,4.505-10.042,10.042       c0,5.538,4.505,10.043,10.042,10.043c5.538,0,10.043-4.505,10.043-10.043C261.037,275.466,256.532,270.962,250.994,270.962z"/></g><g id="XMLID_1027_"><path style="fill:#487FE9;" d="M220.99,400.981c-5.501,0-9.961-4.46-9.961-9.961v-50.008c0-5.501,4.46-9.961,9.961-9.961       h20.043v-30.045c0-5.501,4.46-9.961,9.961-9.961s9.961,4.46,9.961,9.961v40.006c0,5.501-4.46,9.961-9.961,9.961h-20.043v40.047       C230.951,396.521,226.491,400.981,220.99,400.981z"/></g><g id="XMLID_1025_"><path style="fill:#487FE9;" d="M130.977,170.947H70.967c-5.501,0-9.961-4.46-9.961-9.961c0-5.501,4.46-9.961,9.961-9.961       h60.009c5.501,0,9.961,4.46,9.961,9.961C140.938,166.486,136.478,170.947,130.977,170.947z"/></g><g id="XMLID_1024_"><path style="fill:#487FE9;" d="M190.985,140.942h-60.008c-5.501,0-9.961-4.46-9.961-9.961c0-5.501,4.46-9.961,9.961-9.961       h60.008c5.501,0,9.961,4.46,9.961,9.961C200.946,136.482,196.486,140.942,190.985,140.942z"/></g><g id="XMLID_1023_"><path style="fill:#487FE9;" d="M250.994,125.94h-60.009c-5.501,0-9.961-4.46-9.961-9.961s4.46-9.961,9.961-9.961h60.009       c5.501,0,9.961,4.46,9.961,9.961S256.495,125.94,250.994,125.94z"/></g><g id="XMLID_1021_"><path style="fill:#487FE9;" d="M311.004,140.942h-60.009c-5.501,0-9.961-4.46-9.961-9.961c0-5.501,4.46-9.961,9.961-9.961       h60.009c5.501,0,9.961,4.46,9.961,9.961C320.965,136.482,316.505,140.942,311.004,140.942z"/></g></g></g></g></g><g id="Layer_1"/></svg>