<?xml version="1.0" ?><!DOCTYPE svg  PUBLIC '-//W3C//DTD SVG 1.1//EN'  'http://www.w3.org/Graphics/SVG/1.1/DTD/svg11.dtd'><svg enable-background="new 0 0 100 100" height="100px" id="Layer_1" version="1.1" viewBox="0 0 100 100" width="100px" xml:space="preserve" xmlns="http://www.w3.org/2000/svg" xmlns:xlink="http://www.w3.org/1999/xlink"><g><g><path d="M49.979,47.66c-15.222,0-28.482,4.408-35.239,10.881c1.415,1.996,3.451,3.834,5.986,5.459    c0.275-0.498,0.596-0.982,0.961-1.455l0,0c0,0,22.092-5.518,23.095,10.984c-0.411,2.357-0.677,4.639-1.714,6.666l3.59,1.459    l2.75,1.117h1.141l2.746-1.117l3.593-1.459c-1.037-2.027-1.307-4.309-1.713-6.668v0.002c1-16.5,23.091-10.984,23.095-10.984    c0.363,0.475,0.686,0.959,0.96,1.455c2.532-1.625,4.571-3.463,5.985-5.459C78.456,52.068,65.197,47.66,49.979,47.66z" fill="#231F20"/><radialGradient cx="50.1011" cy="104.6436" gradientTransform="matrix(0.9823 0 0 0.9893 1.0674 0.2642)" gradientUnits="userSpaceOnUse" id="SVGID_1_" r="56.1466"><stop offset="0.0056" style="stop-color:#231F20"/><stop offset="0.6685" style="stop-color:#231F20"/><stop offset="0.7325" style="stop-color:#515051"/><stop offset="0.7978" style="stop-color:#7D7E80"/><stop offset="0.9157" style="stop-color:#231F20"/><stop offset="0.944" style="stop-color:#3D3B3C"/><stop offset="1" style="stop-color:#797B7D"/></radialGradient><path d="M15.516,58.617c1.244,1.633,2.934,3.168,5.031,4.574c0.212-0.336,0.436-0.672,0.688-1l0.125-0.164    l0.201-0.043c0.561-0.131,13.804-3.07,21.049,2.398c2.779,2.102,2.502,5.166,2.74,9.109l0.004,0.068l-0.012,0.066    c-0.432,2.494-0.725,4.699-1.655,6.586c0.163,0.406,3.325,0.779,3.438,1.066c0.238,0.168,2.212,0.742,2.461,0.918    c0.209,0,0.576,0,0.783,0c0.251-0.176,2.222-0.75,2.459-0.918c0.115-0.287,3.277-0.66,3.438-1.066    c-0.929-1.887-1.223-4.092-1.654-6.588L54.6,73.561l0.006-0.068c0.245-4.021,0.019-7.127,2.902-9.23    c7.388-5.385,20.775-2.309,20.906-2.273l0.189,0.049l0.117,0.154c0.251,0.33,0.476,0.664,0.685,1    c2.102-1.406,3.789-2.941,5.034-4.574c-7.004-6.41-20.131-10.382-34.46-10.382C35.646,48.235,22.521,52.207,15.516,58.617z" fill="url(#SVGID_1_)"/><radialGradient cx="49.792" cy="50.085" gradientTransform="matrix(0.9823 0 0 0.9893 1.0674 0.2642)" gradientUnits="userSpaceOnUse" id="SVGID_2_" r="40.1416"><stop offset="0.0056" style="stop-color:#231F20"/><stop offset="0.7416" style="stop-color:#231F20"/><stop offset="0.7978" style="stop-color:#7D7E80"/><stop offset="0.9157" style="stop-color:#231F20"/><stop offset="0.9321" style="stop-color:#262223"/><stop offset="0.9465" style="stop-color:#302D2E"/><stop offset="0.9601" style="stop-color:#413F40"/><stop offset="0.9733" style="stop-color:#59585A"/><stop offset="0.9861" style="stop-color:#78787A"/><stop offset="0.9985" style="stop-color:#9D9FA2"/><stop offset="1" style="stop-color:#A2A4A7"/></radialGradient><path d="M49.979,10.099c-21.778,0-39.433,17.78-39.433,39.714s17.654,39.713,39.433,39.713    c21.773,0,39.428-17.779,39.428-39.713S71.753,10.099,49.979,10.099z M49.979,81.016c-17.111,0-30.981-13.971-30.981-31.203    c0-17.234,13.87-31.203,30.981-31.203c17.109,0,30.979,13.969,30.979,31.203C80.958,67.045,67.089,81.016,49.979,81.016z" fill="url(#SVGID_2_)"/><radialGradient cx="50.3481" cy="88.8389" gradientTransform="matrix(0.9823 0 0 0.9893 1.0674 0.2642)" gradientUnits="userSpaceOnUse" id="SVGID_3_" r="35.215"><stop offset="0.0056" style="stop-color:#231F20"/><stop offset="0.7416" style="stop-color:#231F20"/><stop offset="0.7978" style="stop-color:#F1B093"/><stop offset="0.9157" style="stop-color:#802023"/><stop offset="0.9428" style="stop-color:#7D1F22"/><stop offset="0.9665" style="stop-color:#721C1E"/><stop offset="0.9889" style="stop-color:#601817"/><stop offset="1" style="stop-color:#541513"/></radialGradient><path d="M28.076,56.205c5.248-0.246,12.197,0.348,17.268,4.176c4.133,3.121,4.33,7.514,4.488,11.045    c0,0,0.072,1.453,0.072,1.473c0.002,0.023,0.035,0.596,0.035,0.596l-0.102,0.596c0.002-0.016-0.143,0.832-0.143,0.832    c-0.068,0.404-0.135,0.787-0.201,1.16c0.159,0.002,0.328,0.014,0.485,0.014c0.155,0,0.322-0.012,0.481-0.014    c-0.066-0.375-0.135-0.76-0.201-1.164l-0.154-0.902l-0.096-0.557c0,0,0.041-0.541,0.043-0.588    c0.004-0.043,0.068-1.328,0.068-1.328c0.177-3.639,0.397-8.18,4.712-11.328c5.044-3.676,11.9-4.24,17.079-4    c-6.224-2.381-13.933-3.709-21.933-3.709C41.988,52.506,34.295,53.828,28.076,56.205z" fill="url(#SVGID_3_)"/><radialGradient cx="50.0654" cy="50.084" gradientTransform="matrix(0.9823 0 0 0.9893 1.0674 0.2642)" gradientUnits="userSpaceOnUse" id="SVGID_4_" r="40.1425"><stop offset="0.0056" style="stop-color:#231F20"/><stop offset="0.7416" style="stop-color:#231F20"/><stop offset="0.7978" style="stop-color:#F1B093"/><stop offset="0.9157" style="stop-color:#802023"/><stop offset="0.9428" style="stop-color:#7D1F22"/><stop offset="0.9665" style="stop-color:#721C1E"/><stop offset="0.9889" style="stop-color:#601817"/><stop offset="1" style="stop-color:#541513"/></radialGradient><path d="M80.388,49.813c0,3.691-0.652,7.238-1.848,10.521c2.458,2.904,4.489,6.188,5.99,9.752    c3.461-5.959,5.448-12.887,5.448-20.273c0-6.887-1.725-13.373-4.764-19.049c-1.414,3.896-3.453,7.488-5.985,10.661    C79.985,44.092,80.388,46.904,80.388,49.813z" fill="url(#SVGID_4_)"/><radialGradient cx="50.0806" cy="51.2285" gradientTransform="matrix(0.9823 0 0 0.9893 1.0674 0.2642)" gradientUnits="userSpaceOnUse" id="SVGID_5_" r="40.8035"><stop offset="0.0056" style="stop-color:#231F20"/><stop offset="0.7416" style="stop-color:#231F20"/><stop offset="0.7978" style="stop-color:#F1B093"/><stop offset="0.9157" style="stop-color:#802023"/><stop offset="0.9428" style="stop-color:#7D1F22"/><stop offset="0.9665" style="stop-color:#721C1E"/><stop offset="0.9889" style="stop-color:#601817"/><stop offset="1" style="stop-color:#541513"/></radialGradient><path d="M19.567,49.813c0-2.908,0.405-5.721,1.159-8.388c-2.535-3.173-4.571-6.766-5.986-10.661    c-3.036,5.676-4.762,12.162-4.762,19.049c0,7.387,1.986,14.314,5.447,20.273c1.498-3.564,3.531-6.848,5.99-9.752    C20.219,57.051,19.567,53.504,19.567,49.813z" fill="url(#SVGID_5_)"/><radialGradient cx="50.0811" cy="47.2285" gradientTransform="matrix(0.9823 0 0 0.9893 1.0674 0.2642)" gradientUnits="userSpaceOnUse" id="SVGID_6_" r="43.7419"><stop offset="0.0056" style="stop-color:#231F20"/><stop offset="0.7416" style="stop-color:#231F20"/><stop offset="0.7978" style="stop-color:#F1B093"/><stop offset="0.9157" style="stop-color:#802023"/><stop offset="0.9428" style="stop-color:#7D1F22"/><stop offset="0.9665" style="stop-color:#721C1E"/><stop offset="0.9889" style="stop-color:#601817"/><stop offset="1" style="stop-color:#541513"/></radialGradient><path d="M67.399,74.9c-4.938,3.49-10.945,5.541-17.42,5.541c-6.478,0-12.485-2.051-17.426-5.541    c-0.66,1.916-1.021,3.973-1.021,6.115c0,1.682,0.224,3.314,0.641,4.867c5.367,2.699,11.412,4.215,17.807,4.215    c6.393,0,12.438-1.516,17.804-4.215c0.416-1.553,0.641-3.186,0.641-4.867C68.424,78.873,68.063,76.816,67.399,74.9z" fill="url(#SVGID_6_)"/></g></g><g><g><path d="M49.979,47.66c-15.222,0-28.482,4.408-35.239,10.881c1.415,1.996,3.451,3.834,5.986,5.459    c0.275-0.498,0.596-0.982,0.961-1.455l0,0c0,0,22.092-5.518,23.095,10.984c-0.411,2.357-0.677,4.639-1.714,6.666l3.59,1.459    l2.75,1.117h1.141l2.746-1.117l3.593-1.459c-1.037-2.027-1.307-4.309-1.713-6.668v0.002c1-16.5,23.091-10.984,23.095-10.984    c0.363,0.475,0.686,0.959,0.96,1.455c2.532-1.625,4.571-3.463,5.985-5.459C78.456,52.068,65.197,47.66,49.979,47.66z" fill="#231F20"/><radialGradient cx="50.1011" cy="104.6436" gradientTransform="matrix(0.9823 0 0 0.9893 1.0674 0.2642)" gradientUnits="userSpaceOnUse" id="SVGID_7_" r="56.1466"><stop offset="0.0056" style="stop-color:#231F20"/><stop offset="0.6685" style="stop-color:#231F20"/><stop offset="0.7325" style="stop-color:#515051"/><stop offset="0.7978" style="stop-color:#7D7E80"/><stop offset="0.9157" style="stop-color:#231F20"/><stop offset="0.944" style="stop-color:#3D3B3C"/><stop offset="1" style="stop-color:#797B7D"/></radialGradient><path d="M15.516,58.617c1.244,1.633,2.934,3.168,5.031,4.574c0.212-0.336,0.436-0.672,0.688-1l0.125-0.164    l0.201-0.043c0.561-0.131,13.804-3.07,21.049,2.398c2.779,2.102,2.502,5.166,2.74,9.109l0.004,0.068l-0.012,0.066    c-0.432,2.494-0.725,4.699-1.655,6.586c0.163,0.406,3.325,0.779,3.438,1.066c0.238,0.168,2.212,0.742,2.461,0.918    c0.209,0,0.576,0,0.783,0c0.251-0.176,2.222-0.75,2.459-0.918c0.115-0.287,3.277-0.66,3.438-1.066    c-0.929-1.887-1.223-4.092-1.654-6.588L54.6,73.561l0.006-0.068c0.245-4.021,0.019-7.127,2.902-9.23    c7.388-5.385,20.775-2.309,20.906-2.273l0.189,0.049l0.117,0.154c0.251,0.33,0.476,0.664,0.685,1    c2.102-1.406,3.789-2.941,5.034-4.574c-7.004-6.41-20.131-10.382-34.46-10.382C35.646,48.235,22.521,52.207,15.516,58.617z" fill="url(#SVGID_7_)"/><radialGradient cx="49.792" cy="50.085" gradientTransform="matrix(0.9823 0 0 0.9893 1.0674 0.2642)" gradientUnits="userSpaceOnUse" id="SVGID_8_" r="40.1416"><stop offset="0.0056" style="stop-color:#231F20"/><stop offset="0.7416" style="stop-color:#231F20"/><stop offset="0.7978" style="stop-color:#7D7E80"/><stop offset="0.9157" style="stop-color:#231F20"/><stop offset="0.9321" style="stop-color:#262223"/><stop offset="0.9465" style="stop-color:#302D2E"/><stop offset="0.9601" style="stop-color:#413F40"/><stop offset="0.9733" style="stop-color:#59585A"/><stop offset="0.9861" style="stop-color:#78787A"/><stop offset="0.9985" style="stop-color:#9D9FA2"/><stop offset="1" style="stop-color:#A2A4A7"/></radialGradient><path d="M49.979,10.099c-21.778,0-39.433,17.78-39.433,39.714s17.654,39.713,39.433,39.713    c21.773,0,39.428-17.779,39.428-39.713S71.753,10.099,49.979,10.099z M49.979,81.016c-17.111,0-30.981-13.971-30.981-31.203    c0-17.234,13.87-31.203,30.981-31.203c17.109,0,30.979,13.969,30.979,31.203C80.958,67.045,67.089,81.016,49.979,81.016z" fill="url(#SVGID_8_)"/><radialGradient cx="50.3481" cy="88.8389" gradientTransform="matrix(0.9823 0 0 0.9893 1.0674 0.2642)" gradientUnits="userSpaceOnUse" id="SVGID_9_" r="35.215"><stop offset="0.0056" style="stop-color:#231F20"/><stop offset="0.7416" style="stop-color:#231F20"/><stop offset="0.7978" style="stop-color:#F1B093"/><stop offset="0.9157" style="stop-color:#802023"/><stop offset="0.9428" style="stop-color:#7D1F22"/><stop offset="0.9665" style="stop-color:#721C1E"/><stop offset="0.9889" style="stop-color:#601817"/><stop offset="1" style="stop-color:#541513"/></radialGradient><path d="M28.076,56.205c5.248-0.246,12.197,0.348,17.268,4.176c4.133,3.121,4.33,7.514,4.488,11.045    c0,0,0.072,1.453,0.072,1.473c0.002,0.023,0.035,0.596,0.035,0.596l-0.102,0.596c0.002-0.016-0.143,0.832-0.143,0.832    c-0.068,0.404-0.135,0.787-0.201,1.16c0.159,0.002,0.328,0.014,0.485,0.014c0.155,0,0.322-0.012,0.481-0.014    c-0.066-0.375-0.135-0.76-0.201-1.164l-0.154-0.902l-0.096-0.557c0,0,0.041-0.541,0.043-0.588    c0.004-0.043,0.068-1.328,0.068-1.328c0.177-3.639,0.397-8.18,4.712-11.328c5.044-3.676,11.9-4.24,17.079-4    c-6.224-2.381-13.933-3.709-21.933-3.709C41.988,52.506,34.295,53.828,28.076,56.205z" fill="url(#SVGID_9_)"/><radialGradient cx="50.0654" cy="50.084" gradientTransform="matrix(0.9823 0 0 0.9893 1.0674 0.2642)" gradientUnits="userSpaceOnUse" id="SVGID_10_" r="40.1425"><stop offset="0.0056" style="stop-color:#231F20"/><stop offset="0.7416" style="stop-color:#231F20"/><stop offset="0.7978" style="stop-color:#F1B093"/><stop offset="0.9157" style="stop-color:#802023"/><stop offset="0.9428" style="stop-color:#7D1F22"/><stop offset="0.9665" style="stop-color:#721C1E"/><stop offset="0.9889" style="stop-color:#601817"/><stop offset="1" style="stop-color:#541513"/></radialGradient><path d="M80.388,49.813c0,3.691-0.652,7.238-1.848,10.521c2.458,2.904,4.489,6.188,5.99,9.752    c3.461-5.959,5.448-12.887,5.448-20.273c0-6.887-1.725-13.373-4.764-19.049c-1.414,3.896-3.453,7.488-5.985,10.661    C79.985,44.092,80.388,46.904,80.388,49.813z" fill="url(#SVGID_10_)"/><radialGradient cx="50.0806" cy="51.2285" gradientTransform="matrix(0.9823 0 0 0.9893 1.0674 0.2642)" gradientUnits="userSpaceOnUse" id="SVGID_11_" r="40.8035"><stop offset="0.0056" style="stop-color:#231F20"/><stop offset="0.7416" style="stop-color:#231F20"/><stop offset="0.7978" style="stop-color:#F1B093"/><stop offset="0.9157" style="stop-color:#802023"/><stop offset="0.9428" style="stop-color:#7D1F22"/><stop offset="0.9665" style="stop-color:#721C1E"/><stop offset="0.9889" style="stop-color:#601817"/><stop offset="1" style="stop-color:#541513"/></radialGradient><path d="M19.567,49.813c0-2.908,0.405-5.721,1.159-8.388c-2.535-3.173-4.571-6.766-5.986-10.661    c-3.036,5.676-4.762,12.162-4.762,19.049c0,7.387,1.986,14.314,5.447,20.273c1.498-3.564,3.531-6.848,5.99-9.752    C20.219,57.051,19.567,53.504,19.567,49.813z" fill="url(#SVGID_11_)"/><radialGradient cx="50.0811" cy="47.2285" gradientTransform="matrix(0.9823 0 0 0.9893 1.0674 0.2642)" gradientUnits="userSpaceOnUse" id="SVGID_12_" r="43.7419"><stop offset="0.0056" style="stop-color:#231F20"/><stop offset="0.7416" style="stop-color:#231F20"/><stop offset="0.7978" style="stop-color:#F1B093"/><stop offset="0.9157" style="stop-color:#802023"/><stop offset="0.9428" style="stop-color:#7D1F22"/><stop offset="0.9665" style="stop-color:#721C1E"/><stop offset="0.9889" style="stop-color:#601817"/><stop offset="1" style="stop-color:#541513"/></radialGradient><path d="M67.399,74.9c-4.938,3.49-10.945,5.541-17.42,5.541c-6.478,0-12.485-2.051-17.426-5.541    c-0.66,1.916-1.021,3.973-1.021,6.115c0,1.682,0.224,3.314,0.641,4.867c5.367,2.699,11.412,4.215,17.807,4.215    c6.393,0,12.438-1.516,17.804-4.215c0.416-1.553,0.641-3.186,0.641-4.867C68.424,78.873,68.063,76.816,67.399,74.9z" fill="url(#SVGID_12_)"/></g></g></svg>